Coordinates
version=1
nRows=13
nColumns=18
inDegrees=yes

Units are S.I. units (second, meters, Newtons, ...)
Angles are in degrees.

endheader
time	ground_thorax_rot_x	ground_thorax_rot_y	ground_thorax_rot_z	ground_thorax_tx	ground_thorax_ty	ground_thorax_tz	clav_prot	clav_elev	scapula_abduction	scapula_elevation	scapula_upward_rot	scapula_winging	plane_elv	shoulder_elv	axial_rot	elbow_flexion	pro_sup
      4.17000000	      1.67572203	     -8.35488030	    -10.06225248	     -0.00423131	      0.00403036	     -0.00078352	    -22.54768000	     -4.64992443	    -13.48154837	     -3.77131430	     11.02989297	      6.00146926	    -29.23755491	     16.61172316	     41.52058153	      0.00000000	     34.32000000
      4.18000000	      1.57477769	     -8.39050071	    -10.07622879	     -0.00423131	      0.00403036	     -0.00078352	    -22.50860544	     -4.76055858	    -13.46170796	     -3.81767841	     10.89471222	      6.06897970	    -29.07088432	     16.71828401	     40.43123846	      0.00000000	     34.32000000
      4.19000000	      1.74374856	     -8.50764690	    -10.04694805	     -0.00423131	      0.00403036	     -0.00078352	    -22.41272643	     -4.51007269	    -13.27899728	     -3.65726467	     11.03720886	      5.94970709	    -28.65707319	     16.74700746	     39.34768779	      0.00000000	     34.32000000
      4.20000000	      1.90312701	     -8.54866628	    -10.01558095	     -0.00423131	      0.00403036	     -0.00078352	    -22.40750382	     -4.33515365	    -13.32778709	     -3.51552206	     11.01327188	      5.90182151	    -27.70336632	     17.03740543	     37.53883672	      0.00000000	     34.32000000
      4.21000000	      1.65515116	     -8.44964347	    -10.11734207	     -0.00423131	      0.00403036	     -0.00078352	    -22.49939731	     -4.61966213	    -13.45587001	     -3.72058628	     10.93973397	      6.01254407	    -28.42989470	     17.00470969	     36.75271670	      0.00000000	     34.32000000
      4.22000000	      1.64913851	     -8.59059731	     -9.99305512	     -0.00423131	      0.00403036	     -0.00078352	    -22.31231138	     -4.59570754	    -13.13232741	     -3.69356650	     10.94979784	      5.99391647	    -28.84906793	     17.23024308	     36.27885747	      0.00000000	     34.32000000
      4.23000000	      1.71706393	     -8.37930695	    -10.08048254	     -0.00423131	      0.00403036	     -0.00078352	    -22.50566127	     -4.56596485	    -13.36523823	     -3.73537535	     11.14562342	      5.94399690	    -29.29621801	     17.10978685	     37.10157826	      0.00000000	     34.32000000
      4.24000000	      1.76175769	     -8.41355613	    -10.11337656	     -0.00423131	      0.00403036	     -0.00078352	    -22.42745508	     -4.54780280	    -13.19684401	     -3.73481650	     11.21273059	      5.91795399	    -29.49696502	     17.10641722	     37.67419409	      0.00000000	     34.32000000
      4.25000000	      1.78800811	     -8.42114513	    -10.03467741	     -0.00423131	      0.00403036	     -0.00078352	    -22.39471091	     -4.44910541	    -13.13156964	     -3.67289303	     11.27245578	      5.87074873	    -30.19582138	     16.75667004	     42.07819730	      0.00000000	     34.32000000
      4.26000000	      1.72692533	     -8.43374622	    -10.05639515	     -0.00423131	      0.00403036	     -0.00078352	    -22.33091950	     -4.57850352	    -13.16533192	     -3.68312479	     10.95614135	      5.98788609	    -29.26178116	     17.29968018	     37.39697306	      0.00000000	     34.32000000
      4.27000000	      1.81974994	     -8.38980112	    -10.02997567	     -0.00423131	      0.00403036	     -0.00078352	    -22.35638796	     -4.39121670	    -13.12036148	     -3.60643160	     11.20037373	      5.86961623	    -30.33622386	     16.62746102	     43.41294309	      0.00000000	     34.32000000
      4.28000000	      1.79975432	     -8.38175796	    -10.07040668	     -0.00423131	      0.00403036	     -0.00078352	    -22.33358670	     -4.38778011	    -13.08815230	     -3.59927925	     11.18870251	      5.86992347	    -30.33758284	     16.61216810	     43.40589958	      0.00000000	     34.32000000
      4.29000000	      1.76222072	     -8.53806979	    -10.09354558	     -0.00423131	      0.00403036	     -0.00078352	    -22.09501415	     -4.46062321	    -12.81384113	     -3.56452952	     10.90639158	      5.95166732	    -29.01309804	     17.55953951	     33.76948833	      0.00000000	     34.32000000
